<svg xmlns="http://www.w3.org/2000/svg" xmlns:xlink="http://www.w3.org/1999/xlink" width="500" zoomAndPan="magnify" viewBox="0 0 375 374.999991" height="500" preserveAspectRatio="xMidYMid meet" version="1.0"><defs><g/><clipPath id="d1794030aa"><path d="M 92.113281 90.816406 L 279.613281 90.816406 L 279.613281 278 L 92.113281 278 Z M 92.113281 90.816406 " clip-rule="nonzero"/></clipPath></defs><rect x="-37.5" width="450" fill="#ffffff" y="-37.499999" height="449.999989" fill-opacity="1"/><rect x="-37.5" width="450" fill="#fffef9" y="-37.499999" height="449.999989" fill-opacity="1"/><g clip-path="url(#d1794030aa)"><path fill="#ffb74d" d="M 185.699219 277.988281 C 133.996094 277.988281 92.113281 235.816406 92.113281 184.402344 C 92.113281 132.988281 133.996094 90.816406 185.699219 90.816406 C 237.402344 90.816406 279.285156 132.699219 279.285156 184.402344 C 279.285156 236.105469 237.113281 277.988281 185.699219 277.988281 Z M 185.699219 96.59375 C 137.175781 96.59375 97.890625 135.875 97.890625 184.402344 C 97.890625 232.929688 137.175781 272.210938 185.699219 272.210938 C 234.226562 272.210938 273.507812 232.929688 273.507812 184.402344 C 273.507812 135.875 233.9375 96.59375 185.699219 96.59375 Z M 185.699219 96.59375 " fill-opacity="1" fill-rule="nonzero"/></g><path stroke-linecap="butt" transform="matrix(1.488369, 0, 0, 1.488369, 53.581638, 99.570711)" fill="none" stroke-linejoin="miter" d="M 56.936547 69.035041 C 56.936547 67.318606 56.537621 66.103455 56.537621 62.830682 C 56.537621 57.106609 58.492886 42.083871 56.697716 38.971193 C 56.38015 38.233703 55.640036 37.834777 54.823811 37.834777 C 54.243792 37.834777 53.666398 37.994872 53.186112 38.312439 C 51.472302 39.469851 49.915963 42.642893 48.858282 44.69789 C 43.05285 56.466227 39.861436 72.066359 36.192361 85.472394 L 34.237095 91.356562 C 33.817173 92.254147 33.817173 92.653074 32.919588 92.89453 L 32.100738 88.902639 C 29.906641 75.656699 31.783171 53.854832 33.496981 41.923775 C 34.974585 32.029344 36.032265 26.223911 38.564925 16.909499 C 39.042587 15.2718 40.360095 12.261478 38.066266 12.261478 C 34.793493 12.261478 30.725491 37.257383 30.465664 38.892457 C 29.728174 43.960401 29.090416 48.946984 28.510398 54.093663 L 27.694173 70.59138 C 27.694173 75.898154 28.192832 96.085943 32.919588 96.085943 C 34.554662 96.085943 35.05332 95.267093 35.772438 93.970582 C 37.247417 90.359246 38.486189 86.850266 39.383774 83.09983 C 40.759021 78.270718 41.995169 72.885208 43.291681 67.738529 C 45.008115 60.71532 48.779547 47.789572 53.267472 41.745308 C 53.844866 41.007818 53.76613 40.766363 54.742451 40.527532 C 54.742451 41.745308 54.902546 42.482797 54.902546 43.141551 L 53.666398 59.479173 C 53.427567 63.069513 53.427567 72.147719 56.936547 72.147719 C 61.267001 72.147719 66.014753 53.67374 67.410997 50.004664 C 69.605093 44.61653 70.841241 40.028873 73.533996 34.063345 C 76.148016 28.179177 77.625619 24.827668 80.977128 19.363422 C 82.192279 17.248061 83.987449 14.455575 86.123807 13.397894 C 87.997712 17.486892 84.068809 37.756041 83.328695 42.322702 C 81.533525 53.035982 80.796036 60.216662 79.499524 70.51002 L 77.045601 106.956694 C 77.126961 107.93564 77.126961 108.434298 77.205696 109.809545 C 77.284432 111.127053 78.024546 111.943278 78.680675 111.943278 C 79.260693 111.943278 79.819716 111.287148 79.819716 109.809545 C 79.819716 106.796599 79.738355 103.027792 79.979811 100.096206 C 81.294694 88.325245 81.874713 76.974206 83.669883 64.885679 L 88.735202 31.131759 C 89.134128 28.360268 92.485637 10.466308 86.123807 10.466308 C 80.397109 10.466308 71.001337 33.16576 69.284902 37.496214 C 66.014753 45.834306 63.720925 53.513644 60.629243 61.612905 C 59.97049 63.649531 58.414151 68.137456 56.936547 69.035041 Z M 93.128644 52.217133 C 93.706038 50.162135 96.398793 46.970722 98.613885 46.571796 C 98.375054 49.185815 95.183641 51.141081 93.128644 52.217133 Z M 89.456944 54.172398 C 89.456944 56.466227 89.378208 58.502852 91.333474 60.458118 C 92.729717 61.854361 94.364792 62.431755 96.081226 62.431755 C 101.067809 62.431755 106.69215 57.445172 109.726093 54.411229 C 110.463582 53.513644 110.463582 53.434909 110.203755 52.217133 C 107.770827 52.217133 109.067339 52.537324 105.71583 55.151343 C 105.156808 55.568642 104.89698 55.888833 104.240851 56.387491 C 102.624148 57.605267 99.193904 59.977831 96.320057 59.977831 C 95.343737 59.977831 94.364792 59.639268 93.627302 58.901779 C 92.231059 57.523907 92.409526 56.209024 92.409526 54.492589 C 94.94481 54.332494 97.876396 51.95993 99.193904 50.503323 C 101.705567 47.311909 101.705567 44.039136 98.115227 44.039136 C 94.204696 44.039136 89.456944 50.0834 89.456944 54.172398 Z M 110.85726 52.217133 C 111.437278 50.162135 114.130033 46.970722 116.342501 46.571796 C 116.10367 49.185815 112.912257 51.141081 110.85726 52.217133 Z M 107.188184 54.172398 C 107.188184 56.466227 107.106824 58.502852 109.06209 60.458118 C 110.458333 61.854361 112.096032 62.431755 113.809842 62.431755 C 118.796425 62.431755 124.423391 57.445172 127.454708 54.411229 C 128.192198 53.513644 128.192198 53.434909 127.934995 52.217133 C 125.499443 52.217133 126.795955 52.537324 123.444446 55.151343 C 122.888048 55.568642 122.628221 55.888833 121.969467 56.387491 C 120.352764 57.605267 116.92252 59.977831 114.048673 59.977831 C 113.072352 59.977831 112.096032 59.639268 111.355918 58.901779 C 109.959675 57.523907 110.140766 56.209024 110.140766 54.492589 C 112.673426 54.332494 115.605012 51.95993 116.92252 50.503323 C 119.436807 47.311909 119.436807 44.039136 115.843843 44.039136 C 111.935936 44.039136 107.188184 50.0834 107.188184 54.172398 Z M 101.876161 30.554365 C 101.876161 31.711777 102.69501 31.950608 103.592595 31.950608 C 104.091254 31.950608 104.568916 31.869248 104.988838 31.790513 C 105.726328 30.234174 104.907478 30.554365 106.944104 29.735516 C 107.920425 29.336589 108.657914 28.759195 109.636859 28.360268 C 114.702178 26.384007 119.371194 25.00876 124.756704 23.691252 C 125.575554 23.452421 127.449459 23.113858 127.948118 22.953762 L 127.210628 30.554365 C 127.131893 31.612046 127.050533 33.425587 126.872066 34.483268 C 126.473139 36.858456 126.394403 47.889303 126.394403 50.980985 L 126.152948 54.831152 C 126.152948 60.79668 125.89312 70.51002 126.394403 76.396813 C 126.394403 78.352078 126.473139 81.302036 128.5885 81.302036 C 130.722233 81.302036 129.486085 75.656699 129.486085 73.782793 C 129.325989 70.192453 129.404725 53.854832 129.664552 51.400908 C 129.824648 49.684473 129.664552 45.994402 129.664552 43.640209 C 129.664552 42.482797 129.903383 42.482797 129.903383 41.425117 C 129.903383 40.608892 129.824648 39.629947 129.903383 38.892457 L 131.541082 22.134913 C 133.493723 21.735986 145.923438 19.363422 150.411363 19.363422 C 150.988757 19.363422 151.387684 19.363422 151.728871 19.442158 C 152.705191 19.680989 152.445364 19.363422 152.705191 20.179647 C 155.796873 20.179647 154.820553 16.909499 150.988757 16.909499 C 146.002174 16.909499 141.175686 17.725724 136.446305 18.623308 C 135.210158 18.783404 133.493723 19.282062 132.197212 19.282062 C 132.197212 16.668043 133.83491 18.783404 133.83491 16.668043 C 133.83491 16.169385 133.735179 15.851818 133.735179 15.612987 C 133.653819 14.794137 133.83491 15.431895 133.83491 14.455575 C 133.83491 13.159063 133.176157 12.080386 132.278572 12.080386 C 131.199895 12.080386 129.903383 13.55799 129.087158 17.967179 C 128.50714 20.759666 128.766967 20.019552 125.336723 20.917137 C 120.667706 22.216273 101.876161 26.882665 101.876161 30.554365 Z M 101.876161 30.554365 " stroke="#fffef9" stroke-width="6.128468" stroke-opacity="1" stroke-miterlimit="4"/><g fill="#ffb74d" fill-opacity="1"><g transform="translate(93.581549, 199.291421)"><g><path d="M 44.753906 3.039062 C 44.753906 0.488281 44.144531 -1.335938 44.144531 -6.203125 C 44.144531 -14.714844 47.066406 -37.09375 44.390625 -41.714844 C 43.902344 -42.808594 42.808594 -43.417969 41.59375 -43.417969 C 40.742188 -43.417969 39.890625 -43.171875 39.160156 -42.6875 C 36.605469 -40.984375 34.296875 -36.242188 32.714844 -33.199219 C 24.078125 -15.6875 19.335938 7.539062 13.863281 27.484375 L 10.945312 36.242188 C 10.335938 37.578125 10.335938 38.1875 9 38.550781 L 7.785156 32.59375 C 4.5 12.890625 7.296875 -19.578125 9.851562 -37.335938 C 12.039062 -52.050781 13.621094 -60.6875 17.390625 -74.550781 C 18.121094 -76.980469 20.066406 -81.480469 16.660156 -81.480469 C 11.796875 -81.480469 5.714844 -44.269531 5.351562 -41.835938 C 4.257812 -34.296875 3.285156 -26.875 2.433594 -19.214844 L 1.214844 5.351562 C 1.214844 13.257812 1.945312 43.292969 9 43.292969 C 11.433594 43.292969 12.160156 42.078125 13.257812 40.132812 C 15.445312 34.78125 17.269531 29.550781 18.605469 23.957031 C 20.675781 16.78125 22.5 8.757812 24.445312 1.09375 C 27 -9.363281 32.59375 -28.578125 39.28125 -37.578125 C 40.132812 -38.671875 40.011719 -39.039062 41.46875 -39.402344 C 41.46875 -37.578125 41.714844 -36.484375 41.714844 -35.511719 L 39.890625 -11.1875 C 39.523438 -5.835938 39.523438 7.660156 44.753906 7.660156 C 51.199219 7.660156 58.253906 -19.824219 60.320312 -25.296875 C 63.605469 -33.324219 65.429688 -40.132812 69.441406 -49.011719 C 73.332031 -57.765625 75.523438 -62.753906 80.507812 -70.902344 C 82.332031 -74.0625 85.007812 -78.199219 88.171875 -79.777344 C 90.96875 -73.699219 85.128906 -43.539062 84.035156 -36.726562 C 81.359375 -20.796875 80.265625 -10.09375 78.320312 5.230469 L 74.671875 59.46875 C 74.792969 60.929688 74.792969 61.660156 74.914062 63.726562 C 75.035156 65.671875 76.128906 66.886719 77.105469 66.886719 C 77.953125 66.886719 78.804688 65.914062 78.804688 63.726562 C 78.804688 59.226562 78.683594 53.632812 79.050781 49.253906 C 80.996094 31.742188 81.847656 14.835938 84.523438 -3.160156 L 92.0625 -53.390625 C 92.671875 -57.523438 97.65625 -84.15625 88.171875 -84.15625 C 79.65625 -84.15625 65.671875 -50.347656 63.117188 -43.902344 C 58.253906 -31.5 54.847656 -20.066406 50.226562 -8.027344 C 49.253906 -4.984375 46.941406 1.703125 44.753906 3.039062 Z M 44.753906 3.039062 "/></g></g></g><g fill="#ffb74d" fill-opacity="1"><g transform="translate(186.608983, 199.291421)"><g><path d="M 5.59375 -22.011719 C 6.445312 -25.050781 10.457031 -29.796875 13.742188 -30.402344 C 13.378906 -26.511719 8.632812 -23.59375 5.59375 -22.011719 Z M 0.121094 -19.09375 C 0.121094 -15.6875 0 -12.648438 2.917969 -9.730469 C 4.984375 -7.660156 7.417969 -6.808594 9.972656 -6.808594 C 17.390625 -6.808594 25.78125 -14.230469 30.28125 -18.730469 C 31.375 -20.066406 31.375 -20.1875 31.011719 -22.011719 C 27.363281 -22.011719 29.308594 -21.527344 24.324219 -17.632812 C 23.472656 -17.027344 23.105469 -16.539062 22.132812 -15.808594 C 19.703125 -13.984375 14.59375 -10.457031 10.335938 -10.457031 C 8.878906 -10.457031 7.417969 -10.945312 6.324219 -12.039062 C 4.257812 -14.105469 4.5 -16.054688 4.5 -18.605469 C 8.269531 -18.851562 12.648438 -22.378906 14.59375 -24.566406 C 18.363281 -29.308594 18.363281 -34.171875 13.011719 -34.171875 C 7.175781 -34.171875 0.121094 -25.175781 0.121094 -19.09375 Z M 0.121094 -19.09375 "/></g></g></g><g fill="#ffb74d" fill-opacity="1"><g transform="translate(212.997165, 199.291421)"><g><path d="M 5.59375 -22.011719 C 6.445312 -25.050781 10.457031 -29.796875 13.742188 -30.402344 C 13.378906 -26.511719 8.632812 -23.59375 5.59375 -22.011719 Z M 0.121094 -19.09375 C 0.121094 -15.6875 0 -12.648438 2.917969 -9.730469 C 4.984375 -7.660156 7.417969 -6.808594 9.972656 -6.808594 C 17.390625 -6.808594 25.78125 -14.230469 30.28125 -18.730469 C 31.375 -20.066406 31.375 -20.1875 31.011719 -22.011719 C 27.363281 -22.011719 29.308594 -21.527344 24.324219 -17.632812 C 23.472656 -17.027344 23.105469 -16.539062 22.132812 -15.808594 C 19.703125 -13.984375 14.59375 -10.457031 10.335938 -10.457031 C 8.878906 -10.457031 7.417969 -10.945312 6.324219 -12.039062 C 4.257812 -14.105469 4.5 -16.054688 4.5 -18.605469 C 8.269531 -18.851562 12.648438 -22.378906 14.59375 -24.566406 C 18.363281 -29.308594 18.363281 -34.171875 13.011719 -34.171875 C 7.175781 -34.171875 0.121094 -25.175781 0.121094 -19.09375 Z M 0.121094 -19.09375 "/></g></g></g><g fill="#ffb74d" fill-opacity="1"><g transform="translate(239.385347, 199.291421)"><g><path d="M -34.171875 -54.238281 C -34.171875 -52.539062 -32.957031 -52.171875 -31.621094 -52.171875 C -30.890625 -52.171875 -30.160156 -52.292969 -29.550781 -52.414062 C -28.457031 -54.726562 -29.675781 -54.238281 -26.632812 -55.457031 C -25.175781 -56.0625 -24.078125 -56.914062 -22.621094 -57.523438 C -15.082031 -60.441406 -8.148438 -62.511719 -0.121094 -64.457031 C 1.09375 -64.820312 3.890625 -65.308594 4.621094 -65.550781 L 3.527344 -54.238281 C 3.40625 -52.660156 3.285156 -49.984375 3.039062 -48.402344 C 2.433594 -44.875 2.3125 -28.457031 2.3125 -23.835938 L 1.945312 -18.121094 C 1.945312 -9.242188 1.582031 5.230469 2.3125 13.984375 C 2.3125 16.90625 2.433594 21.28125 5.59375 21.28125 C 8.757812 21.28125 6.933594 12.890625 6.933594 10.09375 C 6.6875 4.742188 6.808594 -19.578125 7.175781 -23.226562 C 7.417969 -25.78125 7.175781 -31.253906 7.175781 -34.78125 C 7.175781 -36.484375 7.539062 -36.484375 7.539062 -38.066406 C 7.539062 -39.28125 7.417969 -40.742188 7.539062 -41.835938 L 9.972656 -66.765625 C 12.890625 -67.375 31.375 -70.902344 38.066406 -70.902344 C 38.917969 -70.902344 39.523438 -70.902344 40.011719 -70.78125 C 41.46875 -70.414062 41.105469 -70.902344 41.46875 -69.683594 C 46.09375 -69.683594 44.632812 -74.550781 38.917969 -74.550781 C 31.5 -74.550781 24.324219 -73.332031 17.269531 -71.996094 C 15.445312 -71.753906 12.890625 -71.023438 10.945312 -71.023438 C 10.945312 -74.914062 13.378906 -71.753906 13.378906 -74.914062 C 13.378906 -75.644531 13.257812 -76.128906 13.257812 -76.496094 C 13.132812 -77.710938 13.378906 -76.738281 13.378906 -78.199219 C 13.378906 -80.144531 12.40625 -81.726562 11.066406 -81.726562 C 9.484375 -81.726562 7.539062 -79.535156 6.324219 -72.96875 C 5.472656 -68.832031 5.835938 -69.929688 0.730469 -68.589844 C -6.203125 -66.644531 -34.171875 -59.710938 -34.171875 -54.238281 Z M -34.171875 -54.238281 "/></g></g></g><path fill="#fffef9" d="M 222.167969 279.378906 C 216.410156 281.585938 210.5 283.253906 204.4375 284.386719 C 198.375 285.519531 192.261719 286.097656 186.097656 286.121094 C 179.929688 286.144531 173.8125 285.613281 167.742188 284.527344 C 161.671875 283.441406 155.75 281.820312 149.976562 279.660156 L 157.9375 258.363281 C 162.425781 260.042969 167.03125 261.300781 171.746094 262.144531 C 176.460938 262.988281 181.21875 263.402344 186.007812 263.382812 C 190.800781 263.363281 195.550781 262.914062 200.261719 262.035156 C 204.972656 261.15625 209.5625 259.859375 214.039062 258.144531 Z M 222.167969 279.378906 " fill-opacity="1" fill-rule="nonzero"/><g fill="#ffb74d" fill-opacity="1"><g transform="translate(155.697913, 275.730457)"><g><path d="M 8.890625 -0.25 L 3.53125 -1.65625 L 1.890625 0.5 L 0.015625 0 L 7.5 -9.40625 L 9.328125 -8.9375 L 11.203125 2.921875 L 9.28125 2.421875 Z M 8.625 -2.015625 L 7.859375 -7.265625 L 4.609375 -3.046875 Z M 8.625 -2.015625 "/></g></g></g><g fill="#ffb74d" fill-opacity="1"><g transform="translate(180.839757, 280.334597)"><g><path d="M 1.375 -11.015625 L 5.765625 -11.03125 C 7.148438 -11.039062 8.222656 -10.71875 8.984375 -10.0625 C 9.742188 -9.414062 10.125 -8.492188 10.125 -7.296875 C 10.132812 -6.054688 9.765625 -5.085938 9.015625 -4.390625 C 8.265625 -3.703125 7.195312 -3.351562 5.8125 -3.34375 L 3.28125 -3.328125 L 3.296875 -0.015625 L 1.4375 -0.015625 Z M 3.25 -9.34375 L 3.265625 -5 L 5.71875 -5.015625 C 7.488281 -5.023438 8.367188 -5.765625 8.359375 -7.234375 C 8.359375 -8.660156 7.472656 -9.367188 5.703125 -9.359375 Z M 3.25 -9.34375 "/></g></g></g><g fill="#ffb74d" fill-opacity="1"><g transform="translate(205.278411, 278.417132)"><g><path d="M -1.4375 -11 L 2.796875 -12.125 C 4.140625 -12.476562 5.257812 -12.4375 6.15625 -12 C 7.050781 -11.5625 7.65625 -10.765625 7.96875 -9.609375 C 8.28125 -8.410156 8.160156 -7.378906 7.609375 -6.515625 C 7.054688 -5.660156 6.109375 -5.054688 4.765625 -4.703125 L 2.328125 -4.046875 L 3.1875 -0.84375 L 1.390625 -0.375 Z M 0.78125 -9.859375 L 1.90625 -5.65625 L 4.28125 -6.296875 C 5.988281 -6.753906 6.648438 -7.691406 6.265625 -9.109375 C 5.898438 -10.492188 4.863281 -10.957031 3.15625 -10.5 Z M 0.78125 -9.859375 "/></g></g></g></svg>